# xmcd
#
# Track frame offsets:
#	150
#	15532
#	26292
#	38087
#	51620
#	63932
#	75257
#	88125
#	101287
#	114287
#
# Disc length: 1682 seconds
#
# Revision: 3
# Processed by: cddbd v1.5.2PL0 Copyright (c) Steve Scherf et al.
# Submitted via: audiograbber 1.83.01
#
DISCID=6a06900a
DTITLE=Loretta Lynn - Making Love From Memory
DYEAR=1990
DGENRE=Country
TTITLE0=Making Love From Memory
TTITLE1=Don't It Feel Good
TTITLE2=I Shouldn"t Enjoy
TTITLE3=There's All Kinds Of Smoke
TTITLE4=Love The Day Away
TTITLE5=When We Get Back Together
TTITLE6=Then You'll Be Free
TTITLE7=IDon't Want To Hea It Anymore
TTITLE8=Breakin' It
TTITLE9=Deeper And Deeper
EXTD=
EXTT0=
EXTT1=
EXTT2=
EXTT3=
EXTT4=
EXTT5=
EXTT6=
EXTT7=
EXTT8=
EXTT9=
PLAYORDER=
